# xmcd
#
# Track frame offsets:
# 150
# 6535
# 13185
# 24573
# 26534
# 31900
# 40248
# 54176
# 64838
# 69926
# 76995
# 89867
#
# Disc length: 1294 seconds
#
# Revision: 0
# Processed by: cddbd v1.4PL0 Copyright (c) Steve Scherf et al.
# Submitted via: Audion 3.0.2 (http://www.panic.com/audion/)
#
DISCID=95050c0c
DTITLE=The Badger King - Sandwiches
DYEAR=1900
DGENRE=
TTITLE0=You Fit Into Me
TTITLE1=One by One
TTITLE2=The Fiasco Master
TTITLE3=Elementary Physics
TTITLE4=Snail and Sky
TTITLE5=Winged Fleshlings
TTITLE6=Paper Robot
TTITLE7=Space Ox
TTITLE8=An Unmarked Territory
TTITLE9=Colt'n'Cobra
TTITLE10=Valentino
TTITLE11=Home to England
EXTD=
EXTT0=
EXTT1=
EXTT2=
EXTT3=
EXTT4=
EXTT5=
EXTT6=
EXTT7=
EXTT8=
EXTT9=
EXTT10=
EXTT11=
PLAYORDER=
